<svg width="43" height="43" viewBox="0 0 43 43" fill="none" xmlns="http://www.w3.org/2000/svg">
<path d="M0 36.9355C0 26.4809 0 16.017 0 5.56234C0.0272152 5.47095 0.0634989 5.37957 0.0816424 5.28818C0.598732 2.17188 3.11161 0.0060028 6.26857 0.0060028C16.1568 -0.00313591 26.045 -0.00313591 35.9332 0.0151415C36.6226 0.0151415 37.3393 0.133945 37.9925 0.344135C40.6051 1.22145 42.2018 3.55182 42.2018 6.39396C42.2018 16.3003 42.2018 26.1976 42.2018 36.1039C42.2018 36.241 42.2018 36.3781 42.1927 36.5152C42.0203 38.9278 40.8864 40.7372 38.7364 41.8248C38.1013 42.1446 37.3665 42.2726 36.6771 42.4919C32.749 42.4919 28.8209 42.4919 24.8929 42.4919C24.8929 37.4656 24.8929 32.4302 24.8929 27.3764C27.0429 27.3764 29.1385 27.3764 31.2612 27.3764C31.5334 25.7132 31.8055 24.0865 32.0868 22.3959C29.6646 22.3959 27.2878 22.3959 24.911 22.3959C24.9019 22.3045 24.8929 22.2588 24.8929 22.2222C24.8929 20.6869 24.8838 19.1516 24.8929 17.6163C24.9019 15.9896 25.9361 14.9478 27.5509 14.9478C28.9752 14.9387 30.4085 14.9478 31.8328 14.9478C31.9779 14.9478 32.1231 14.9478 32.2773 14.9478C32.2773 13.2663 32.2773 11.6304 32.2773 9.9672C30.2724 9.9672 28.2948 9.9672 26.3171 9.9672C22.634 9.97634 19.9488 12.6814 19.9397 16.3826C19.9397 18.2377 19.9397 20.0929 19.9397 21.9481C19.9397 22.0943 19.9397 22.2405 19.9397 22.4324C18.2705 22.4324 16.6376 22.4324 15.0137 22.4324C15.0137 24.1048 15.0137 25.7315 15.0137 27.4039C16.6557 27.4039 18.2796 27.4039 19.9397 27.4039C19.9397 32.4667 19.9397 37.4839 19.9397 42.5102C15.1317 42.5102 10.3237 42.5102 5.51562 42.5102C5.44305 42.4827 5.3614 42.4462 5.27976 42.437C3.09347 42.0715 1.50591 40.8835 0.571518 38.873C0.308437 38.2607 0.190507 37.5752 0 36.9355ZM27.3785 40.0061C27.5237 40.0061 27.6325 40.0061 27.7414 40.0061C30.4357 40.0061 33.121 40.0061 35.8153 40.0061C38.1286 39.997 39.7161 38.3977 39.7252 36.0674C39.7252 26.1884 39.7252 16.3186 39.7252 6.43966C39.7252 4.10015 38.1376 2.50087 35.8243 2.49173C26.0087 2.49173 16.184 2.49173 6.36836 2.49173C4.07321 2.49173 2.48566 4.10015 2.48566 6.41224C2.48566 16.3003 2.48566 26.1976 2.48566 36.0856C2.48566 36.4512 2.52194 36.835 2.61266 37.1914C3.08439 38.9278 4.47237 39.997 6.27765 40.0061C9.91542 40.0153 13.5532 40.0061 17.2 40.0061C17.2907 40.0061 17.3815 39.9787 17.454 39.9696C17.454 36.5974 17.454 33.2526 17.454 29.8713C15.803 29.8713 14.1791 29.8713 12.5644 29.8713C12.5644 26.5265 12.5644 23.2366 12.5644 19.901C14.2154 19.901 15.8302 19.901 17.4722 19.901C17.4722 18.6947 17.4722 17.5249 17.4722 16.3552C17.4722 15.3499 17.5992 14.3629 17.9258 13.4216C19.214 9.75701 22.3891 7.49061 26.2446 7.47233C28.9479 7.46319 31.6604 7.47233 34.3638 7.47233C34.4908 7.47233 34.6269 7.48147 34.7539 7.49061C34.7539 10.8171 34.7539 14.107 34.7539 17.4335C32.2863 17.4335 29.837 17.4335 27.3876 17.4335C27.3876 18.2834 27.3876 19.0968 27.3876 19.9375C29.9368 19.9375 32.4496 19.9375 34.9988 19.9375C34.4454 23.2732 33.9011 26.5631 33.3477 29.8896C31.3338 29.8896 29.3652 29.8896 27.3785 29.8896C27.3785 33.2709 27.3785 36.6065 27.3785 40.0061Z" fill="#67CBE6"></path>
</svg>