<svg width="46" height="42" viewBox="0 0 46 42" fill="none" xmlns="http://www.w3.org/2000/svg">
<path d="M22.4626 41.408C16.7565 41.408 11.0413 41.3623 5.33518 41.4354C3.2759 41.4628 1.90606 40.0189 1.92421 38.0267C1.98771 32.1413 1.94235 26.256 1.95142 20.3707C1.95142 20.0325 1.8607 19.7949 1.63391 19.5482C0.663234 18.4881 0.128001 17.2178 0.0100682 15.783C-0.017147 15.4449 0.0100682 15.0885 0.100786 14.7686C1.16218 10.8573 2.23265 6.95505 3.31218 3.04368C3.84742 1.10627 5.2989 0.000488281 7.30375 0.000488281C17.4369 0.000488281 27.57 0.000488281 37.7032 0.000488281C39.7352 0.000488281 41.1686 1.10627 41.722 3.08023C42.7924 6.97333 43.8629 10.8573 44.9243 14.7504C45.2146 15.8196 44.9334 16.8523 44.4979 17.8118C44.2076 18.4424 43.745 18.9907 43.3821 19.5939C43.246 19.8315 43.0918 20.1057 43.0918 20.3707C43.0737 26.2834 43.0827 32.2053 43.0827 38.1181C43.0827 40.22 41.8943 41.4171 39.8078 41.4263C34.011 41.408 28.2413 41.408 22.4626 41.408ZM3.90185 21.2389C3.90185 21.4216 3.90185 21.577 3.90185 21.7415C3.90185 27.2156 3.90185 32.6805 3.90185 38.1546C3.90185 39.1325 4.21029 39.4432 5.19911 39.4432C16.7293 39.4432 28.2595 39.4432 39.7897 39.4432C40.7966 39.4432 41.096 39.1416 41.096 38.1181C41.096 32.6623 41.096 27.2064 41.096 21.7506C41.096 21.5861 41.096 21.4216 41.096 21.2389C37.8393 22.3081 35.2266 21.4125 33.2127 18.6709C31.9154 20.6083 30.1464 21.6958 27.8331 21.6775C25.4926 21.6592 23.778 20.4621 22.4899 18.5155C21.2017 20.4803 19.4962 21.6501 17.1647 21.6775C14.8333 21.7049 13.0643 20.6083 11.7671 18.6709C9.7622 21.4216 7.15861 22.2989 3.90185 21.2389ZM21.501 2.00187C19.1605 2.00187 16.8563 2.00187 14.5339 2.00187C13.9987 5.94065 13.4635 9.84288 12.9282 13.7634C15.7949 13.7634 18.6344 13.7634 21.501 13.7634C21.501 9.84288 21.501 5.93151 21.501 2.00187ZM23.5059 1.98359C23.5059 5.92237 23.5059 9.83374 23.5059 13.7634C26.3726 13.7634 29.212 13.7634 32.0696 13.7634C31.5253 9.81547 30.9901 5.9041 30.4549 1.98359C28.1143 1.98359 25.8283 1.98359 23.5059 1.98359ZM10.9506 13.7817C11.4949 9.83374 12.0301 5.92237 12.5654 1.98359C12.3749 1.97445 12.2479 1.95617 12.1209 1.95617C10.5061 1.95617 8.89131 1.95617 7.27654 1.95617C6.16071 1.95617 5.4894 2.48622 5.18096 3.58286C4.28286 6.86366 3.39383 10.1353 2.49573 13.407C2.46851 13.5258 2.45944 13.6446 2.43222 13.7817C5.28982 13.7817 8.09299 13.7817 10.9506 13.7817ZM34.0563 13.7725C36.9321 13.7725 39.7443 13.7725 42.5747 13.7725C42.5656 13.6629 42.5656 13.5806 42.5475 13.5075C41.6312 10.1719 40.7241 6.83625 39.8078 3.50062C39.5266 2.47708 38.819 1.96531 37.7485 1.96531C36.1338 1.95617 34.519 1.96531 32.9042 1.96531C32.7681 1.96531 32.623 1.98359 32.4506 1.99273C32.9859 5.94065 33.5211 9.84288 34.0563 13.7725ZM34.3466 15.783C34.4373 18.0403 36.6509 19.8772 39.0004 19.6944C41.096 19.5299 43.119 17.5103 42.9104 15.783C40.0709 15.783 37.2224 15.783 34.3466 15.783ZM2.05121 15.783C2.12379 18.0038 4.29193 19.8406 6.64152 19.7036C8.74616 19.5756 10.7601 17.6108 10.624 15.783C7.78456 15.783 4.93603 15.783 2.05121 15.783ZM12.8375 15.783C13.1369 18.2048 15.1508 19.8863 17.4732 19.6944C19.5415 19.5299 21.4103 17.6565 21.374 15.783C18.5346 15.783 15.6951 15.783 12.8375 15.783ZM23.6057 15.7922C23.9051 18.2139 25.919 19.8863 28.2413 19.7036C30.3097 19.5391 32.1785 17.6656 32.1422 15.7739C29.4207 15.7739 26.6991 15.7739 23.9776 15.7739C23.8506 15.7739 23.7418 15.783 23.6057 15.7922Z" fill="#67CBE6"></path>
<path d="M36.8776 32.5251C35.662 32.5251 34.4917 32.5251 33.3033 32.5251C33.3033 31.8762 33.3033 31.2548 33.3033 30.606C35.2265 30.606 37.1498 30.606 39.082 30.606C39.4358 32.6256 38.1749 36.0252 34.7548 37.1584C31.6613 38.182 28.2957 36.6558 26.9713 33.6583C25.6286 30.6242 26.7898 27.1515 29.7109 25.4517C32.3236 23.9347 35.9886 24.6567 37.6668 26.9962C37.2133 27.444 36.7687 27.8826 36.2879 28.3578C35.4533 27.316 34.3194 26.658 32.877 26.6215C31.9154 26.6032 31.0445 26.8774 30.2552 27.4257C28.6586 28.5589 27.9964 30.5968 28.6042 32.4428C29.212 34.2889 30.9537 35.5226 32.8951 35.486C34.6732 35.4586 36.3787 34.2158 36.8776 32.5251Z" fill="#67CBE6"></path>
</svg>