<svg width="43" height="42" viewBox="0 0 43 42" fill="none" xmlns="http://www.w3.org/2000/svg">
<path d="M9.86753 21.938C9.91494 16.1029 14.903 11.3488 20.9438 11.3855C27.0035 11.4221 31.9347 16.2678 31.8778 22.112C31.8209 27.947 26.8233 32.6828 20.7826 32.637C14.7324 32.5912 9.82011 27.773 9.86753 21.938ZM20.811 28.8172C24.6991 28.8447 27.8759 25.831 27.9044 22.0845C27.9328 18.3105 24.8034 15.2327 20.9058 15.2052C17.0178 15.1778 13.8504 18.1915 13.8125 21.9471C13.784 25.7303 16.904 28.7897 20.811 28.8172Z" fill="#67CBE6"></path>
<path d="M31.8351 13.6622C30.5635 13.6536 29.5925 12.6569 29.6011 11.3767C29.6097 10.1223 30.6236 9.11699 31.8781 9.1084C33.0982 9.1084 34.1551 10.1652 34.1551 11.3939C34.1551 12.6569 33.1068 13.6794 31.8351 13.6622Z" fill="#67CBE6"></path>
<rect x="1.5" y="1.50024" width="39.5042" height="38.7452" rx="8.5" stroke="#67CBE6" stroke-width="3"></rect>
</svg>