<svg width="59" height="70" viewBox="0 0 59 70" fill="none" xmlns="http://www.w3.org/2000/svg">
<g clip-path="url(#clip0_1_259)">
<path d="M29.4998 12.4104L1.35925 40.5276L29.4998 68.6448L57.6403 40.5276L29.4998 12.4104Z" fill="#FAF3E2"></path>
<path d="M29.4956 1.43289L1.3551 29.55L29.4956 57.6672L57.6362 29.5501L29.4956 1.43289Z" fill="#67CBE6"></path>
<path d="M6.24947 34.2834L29.4969 57.5179L52.7507 34.2834L59.0001 40.5277L29.4969 70.0001L26.5334 67.0389L-0.00622559 40.5214L6.24947 34.2834ZM57.5657 40.5277L52.7507 35.7167L29.4969 58.9448L6.24947 35.7167L1.43444 40.5277L29.4969 68.5669L57.5657 40.5277Z" fill="#243141"></path>
<path d="M30.0024 58.2312H28.9913V69.2865H30.0024V58.2312Z" fill="#243141"></path>
<path d="M0.993025 29.4275L-0.0180664 29.429L-0.00261749 40.4842L1.00847 40.4828L0.993025 29.4275Z" fill="#243141"></path>
<path d="M58.963 29.4288L57.9519 29.4302L57.9674 40.4855L58.9785 40.4841L58.963 29.4288Z" fill="#243141"></path>
<path d="M29.4969 58.9447L53.0603 35.4072L59.0001 29.4724L29.4969 0L0 29.4724L29.4969 58.9447ZM57.5657 29.4724L52.3399 34.6875L29.4969 57.5178L1.43441 29.4724L29.4969 1.4332L57.5657 29.4724Z" fill="#243141"></path>
<path d="M42.5075 20.3364C42.5075 22.0433 42.1709 23.7334 41.517 25.3103C40.8631 26.8872 39.9046 28.3198 38.6964 29.5265C37.4881 30.7331 36.0538 31.6901 34.4753 32.3427C32.8968 32.9953 31.2051 33.3308 29.4968 33.33C26.0478 33.33 22.7401 31.961 20.3013 29.5243C17.8625 27.0875 16.4924 23.7825 16.4924 20.3364C16.4924 13.1577 28.9218 0.220947 29.4968 0.220947C30.1856 0.220947 42.5075 13.1577 42.5075 20.3364Z" fill="#243141"></path>
</g>
<defs>
<clipPath id="clip0_1_259">
<rect width="59" height="70" fill="white"></rect>
</clipPath>
</defs>
</svg>